<svg width="55" height="54" viewBox="0 0 55 54" fill="none" xmlns="http://www.w3.org/2000/svg">
<circle cx="27.0039" cy="27" r="27" fill="#39F2B3"/>
<path d="M35.0039 27L35.711 27.7071L36.4181 27L35.711 26.2929L35.0039 27ZM20.0039 26C19.4516 26 19.0039 26.4477 19.0039 27C19.0039 27.5523 19.4516 28 20.0039 28L20.0039 26ZM29.711 33.7071L35.711 27.7071L34.2968 26.2929L28.2968 32.2929L29.711 33.7071ZM35.711 26.2929L29.711 20.2929L28.2968 21.7071L34.2968 27.7071L35.711 26.2929ZM35.0039 26L20.0039 26L20.0039 28L35.0039 28L35.0039 26Z" fill="black"/>
</svg>
