<svg width="157" height="37" viewBox="0 0 157 37" fill="none" xmlns="http://www.w3.org/2000/svg">
<path d="M10.032 23.288C8.736 23.288 7.528 23.08 6.408 22.664C5.304 22.232 4.344 21.624 3.528 20.84C2.712 20.056 2.072 19.136 1.608 18.08C1.16 17.024 0.936 15.864 0.936 14.6C0.936 13.336 1.16 12.176 1.608 11.12C2.072 10.064 2.712 9.144 3.528 8.36C4.36 7.576 5.328 6.976 6.432 6.56C7.536 6.128 8.744 5.912 10.056 5.912C11.512 5.912 12.824 6.168 13.992 6.68C15.176 7.176 16.168 7.912 16.968 8.888L14.472 11.192C13.896 10.536 13.256 10.048 12.552 9.728C11.848 9.392 11.08 9.224 10.248 9.224C9.464 9.224 8.744 9.352 8.088 9.608C7.432 9.864 6.864 10.232 6.384 10.712C5.904 11.192 5.528 11.76 5.256 12.416C5 13.072 4.872 13.8 4.872 14.6C4.872 15.4 5 16.128 5.256 16.784C5.528 17.44 5.904 18.008 6.384 18.488C6.864 18.968 7.432 19.336 8.088 19.592C8.744 19.848 9.464 19.976 10.248 19.976C11.08 19.976 11.848 19.816 12.552 19.496C13.256 19.16 13.896 18.656 14.472 17.984L16.968 20.288C16.168 21.264 15.176 22.008 13.992 22.52C12.824 23.032 11.504 23.288 10.032 23.288ZM20.5936 23V6.2H23.8096L30.9616 18.056H29.2576L36.2896 6.2H39.4816L39.5296 23H35.8816L35.8576 11.792H36.5296L30.9136 21.224H29.1616L23.4256 11.792H24.2416V23H20.5936ZM44.5154 23V6.2H52.1474C53.9714 6.2 55.5794 6.552 56.9714 7.256C58.3634 7.944 59.4514 8.912 60.2354 10.16C61.0194 11.408 61.4114 12.888 61.4114 14.6C61.4114 16.296 61.0194 17.776 60.2354 19.04C59.4514 20.288 58.3634 21.264 56.9714 21.968C55.5794 22.656 53.9714 23 52.1474 23H44.5154ZM48.4034 19.808H51.9554C53.0754 19.808 54.0434 19.6 54.8594 19.184C55.6914 18.752 56.3314 18.144 56.7794 17.36C57.2434 16.576 57.4754 15.656 57.4754 14.6C57.4754 13.528 57.2434 12.608 56.7794 11.84C56.3314 11.056 55.6914 10.456 54.8594 10.04C54.0434 9.608 53.0754 9.392 51.9554 9.392H48.4034V19.808ZM65.3436 23V6.2H69.2316V23H65.3436ZM82.3306 23.288C81.0026 23.288 79.7786 23.08 78.6586 22.664C77.5546 22.232 76.5866 21.624 75.7546 20.84C74.9386 20.056 74.2986 19.136 73.8346 18.08C73.3866 17.024 73.1626 15.864 73.1626 14.6C73.1626 13.336 73.3866 12.176 73.8346 11.12C74.2986 10.064 74.9466 9.144 75.7786 8.36C76.6106 7.576 77.5866 6.976 78.7066 6.56C79.8266 6.128 81.0586 5.912 82.4026 5.912C83.8906 5.912 85.2266 6.16 86.4106 6.656C87.6106 7.152 88.6186 7.872 89.4346 8.816L86.9386 11.12C86.3306 10.48 85.6666 10.008 84.9466 9.704C84.2266 9.384 83.4426 9.224 82.5946 9.224C81.7786 9.224 81.0346 9.352 80.3626 9.608C79.6906 9.864 79.1066 10.232 78.6106 10.712C78.1306 11.192 77.7546 11.76 77.4826 12.416C77.2266 13.072 77.0986 13.8 77.0986 14.6C77.0986 15.384 77.2266 16.104 77.4826 16.76C77.7546 17.416 78.1306 17.992 78.6106 18.488C79.1066 18.968 79.6826 19.336 80.3386 19.592C81.0106 19.848 81.7466 19.976 82.5466 19.976C83.3146 19.976 84.0586 19.856 84.7786 19.616C85.5146 19.36 86.2266 18.936 86.9146 18.344L89.1226 21.152C88.2106 21.84 87.1466 22.368 85.9306 22.736C84.7306 23.104 83.5306 23.288 82.3306 23.288ZM85.5706 20.648V14.336H89.1226V21.152L85.5706 20.648ZM93.7342 23V6.2H97.6222V23H93.7342ZM106.089 23V9.368H100.713V6.2H115.353V9.368H109.977V23H106.089ZM115.393 23L122.881 6.2H126.721L134.233 23H130.153L124.009 8.168H125.545L119.377 23H115.393ZM119.137 19.4L120.169 16.448H128.809L129.865 19.4H119.137ZM136.976 23V6.2H140.864V19.832H149.288V23H136.976Z" fill="white"/>
<path d="M1.14 35V28H1.75L4.95 33.46H4.63L7.8 28H8.41V35H7.7V29.11H7.87L4.95 34.11H4.6L1.66 29.11H1.85V35H1.14ZM13.8308 35V33.84L13.8008 33.65V31.71C13.8008 31.2633 13.6741 30.92 13.4208 30.68C13.1741 30.44 12.8041 30.32 12.3108 30.32C11.9708 30.32 11.6474 30.3767 11.3408 30.49C11.0341 30.6033 10.7741 30.7533 10.5608 30.94L10.2408 30.41C10.5074 30.1833 10.8274 30.01 11.2008 29.89C11.5741 29.7633 11.9674 29.7 12.3808 29.7C13.0608 29.7 13.5841 29.87 13.9508 30.21C14.3241 30.5433 14.5108 31.0533 14.5108 31.74V35H13.8308ZM12.0208 35.05C11.6274 35.05 11.2841 34.9867 10.9908 34.86C10.7041 34.7267 10.4841 34.5467 10.3308 34.32C10.1774 34.0867 10.1008 33.82 10.1008 33.52C10.1008 33.2467 10.1641 33 10.2908 32.78C10.4241 32.5533 10.6374 32.3733 10.9308 32.24C11.2308 32.1 11.6308 32.03 12.1308 32.03H13.9408V32.56H12.1508C11.6441 32.56 11.2908 32.65 11.0908 32.83C10.8974 33.01 10.8008 33.2333 10.8008 33.5C10.8008 33.8 10.9174 34.04 11.1508 34.22C11.3841 34.4 11.7108 34.49 12.1308 34.49C12.5308 34.49 12.8741 34.4 13.1608 34.22C13.4541 34.0333 13.6674 33.7667 13.8008 33.42L13.9608 33.91C13.8274 34.2567 13.5941 34.5333 13.2608 34.74C12.9341 34.9467 12.5208 35.05 12.0208 35.05ZM16.9992 33.64L17.0192 32.73L20.2892 29.75H21.1592L18.8492 31.96L18.4492 32.3L16.9992 33.64ZM16.4392 35V27.58H17.1492V35H16.4392ZM20.5092 35L18.3192 32.27L18.7792 31.72L21.3792 35H20.5092ZM24.47 35.05C23.9233 35.05 23.4433 34.9367 23.03 34.71C22.6167 34.4767 22.2933 34.16 22.06 33.76C21.8267 33.3533 21.71 32.89 21.71 32.37C21.71 31.85 21.82 31.39 22.04 30.99C22.2667 30.59 22.5733 30.2767 22.96 30.05C23.3533 29.8167 23.7933 29.7 24.28 29.7C24.7733 29.7 25.21 29.8133 25.59 30.04C25.9767 30.26 26.28 30.5733 26.5 30.98C26.72 31.38 26.83 31.8433 26.83 32.37C26.83 32.4033 26.8267 32.44 26.82 32.48C26.82 32.5133 26.82 32.55 26.82 32.59H22.25V32.06H26.44L26.16 32.27C26.16 31.89 26.0767 31.5533 25.91 31.26C25.75 30.96 25.53 30.7267 25.25 30.56C24.97 30.3933 24.6467 30.31 24.28 30.31C23.92 30.31 23.5967 30.3933 23.31 30.56C23.0233 30.7267 22.8 30.96 22.64 31.26C22.48 31.56 22.4 31.9033 22.4 32.29V32.4C22.4 32.8 22.4867 33.1533 22.66 33.46C22.84 33.76 23.0867 33.9967 23.4 34.17C23.72 34.3367 24.0833 34.42 24.49 34.42C24.81 34.42 25.1067 34.3633 25.38 34.25C25.66 34.1367 25.9 33.9633 26.1 33.73L26.5 34.19C26.2667 34.47 25.9733 34.6833 25.62 34.83C25.2733 34.9767 24.89 35.05 24.47 35.05ZM30.9323 36.99C30.6857 36.99 30.449 36.95 30.2223 36.87C30.0023 36.79 29.8123 36.67 29.6523 36.51L29.9823 35.98C30.1157 36.1067 30.259 36.2033 30.4123 36.27C30.5723 36.3433 30.749 36.38 30.9423 36.38C31.1757 36.38 31.3757 36.3133 31.5423 36.18C31.7157 36.0533 31.879 35.8267 32.0323 35.5L32.3723 34.73L32.4523 34.62L34.6123 29.75H35.3123L32.6823 35.63C32.5357 35.97 32.3723 36.24 32.1923 36.44C32.019 36.64 31.829 36.78 31.6223 36.86C31.4157 36.9467 31.1857 36.99 30.9323 36.99ZM32.3323 35.15L29.9123 29.75H30.6523L32.7923 34.57L32.3323 35.15ZM38.3058 35.05C37.7991 35.05 37.3424 34.9367 36.9358 34.71C36.5358 34.4767 36.2191 34.16 35.9858 33.76C35.7524 33.3533 35.6358 32.89 35.6358 32.37C35.6358 31.8433 35.7524 31.38 35.9858 30.98C36.2191 30.58 36.5358 30.2667 36.9358 30.04C37.3358 29.8133 37.7924 29.7 38.3058 29.7C38.8258 29.7 39.2858 29.8133 39.6858 30.04C40.0924 30.2667 40.4091 30.58 40.6358 30.98C40.8691 31.38 40.9858 31.8433 40.9858 32.37C40.9858 32.89 40.8691 33.3533 40.6358 33.76C40.4091 34.16 40.0924 34.4767 39.6858 34.71C39.2791 34.9367 38.8191 35.05 38.3058 35.05ZM38.3058 34.42C38.6858 34.42 39.0224 34.3367 39.3158 34.17C39.6091 33.9967 39.8391 33.7567 40.0058 33.45C40.1791 33.1367 40.2658 32.7767 40.2658 32.37C40.2658 31.9567 40.1791 31.5967 40.0058 31.29C39.8391 30.9833 39.6091 30.7467 39.3158 30.58C39.0224 30.4067 38.6891 30.32 38.3158 30.32C37.9424 30.32 37.6091 30.4067 37.3158 30.58C37.0224 30.7467 36.7891 30.9833 36.6158 31.29C36.4424 31.5967 36.3558 31.9567 36.3558 32.37C36.3558 32.7767 36.4424 33.1367 36.6158 33.45C36.7891 33.7567 37.0224 33.9967 37.3158 34.17C37.6091 34.3367 37.9391 34.42 38.3058 34.42ZM44.6053 35.05C44.1586 35.05 43.7686 34.9667 43.4353 34.8C43.102 34.6333 42.842 34.3833 42.6553 34.05C42.4753 33.7167 42.3853 33.3 42.3853 32.8V29.75H43.0953V32.72C43.0953 33.28 43.232 33.7033 43.5053 33.99C43.7853 34.27 44.1753 34.41 44.6753 34.41C45.042 34.41 45.3586 34.3367 45.6253 34.19C45.8986 34.0367 46.1053 33.8167 46.2453 33.53C46.392 33.2433 46.4653 32.9 46.4653 32.5V29.75H47.1753V35H46.4953V33.56L46.6053 33.82C46.4386 34.2067 46.1786 34.51 45.8253 34.73C45.4786 34.9433 45.072 35.05 44.6053 35.05ZM49.1541 35V29.75H49.8341V31.18L49.7641 30.93C49.9107 30.53 50.1574 30.2267 50.5041 30.02C50.8507 29.8067 51.2807 29.7 51.7941 29.7V30.39C51.7674 30.39 51.7407 30.39 51.7141 30.39C51.6874 30.3833 51.6607 30.38 51.6341 30.38C51.0807 30.38 50.6474 30.55 50.3341 30.89C50.0207 31.2233 49.8641 31.7 49.8641 32.32V35H49.1541ZM57.9649 35.05C57.4449 35.05 56.9783 34.9367 56.5649 34.71C56.1583 34.4767 55.8383 34.16 55.6049 33.76C55.3716 33.3533 55.2549 32.89 55.2549 32.37C55.2549 31.8433 55.3716 31.38 55.6049 30.98C55.8383 30.58 56.1583 30.2667 56.5649 30.04C56.9783 29.8133 57.4449 29.7 57.9649 29.7C58.4116 29.7 58.8149 29.7867 59.1749 29.96C59.5349 30.1333 59.8183 30.3933 60.0249 30.74L59.4949 31.1C59.3149 30.8333 59.0916 30.6367 58.8249 30.51C58.5583 30.3833 58.2683 30.32 57.9549 30.32C57.5816 30.32 57.2449 30.4067 56.9449 30.58C56.6449 30.7467 56.4083 30.9833 56.2349 31.29C56.0616 31.5967 55.9749 31.9567 55.9749 32.37C55.9749 32.7833 56.0616 33.1433 56.2349 33.45C56.4083 33.7567 56.6449 33.9967 56.9449 34.17C57.2449 34.3367 57.5816 34.42 57.9549 34.42C58.2683 34.42 58.5583 34.3567 58.8249 34.23C59.0916 34.1033 59.3149 33.91 59.4949 33.65L60.0249 34.01C59.8183 34.35 59.5349 34.61 59.1749 34.79C58.8149 34.9633 58.4116 35.05 57.9649 35.05ZM63.4718 35.05C62.9651 35.05 62.5085 34.9367 62.1018 34.71C61.7018 34.4767 61.3851 34.16 61.1518 33.76C60.9185 33.3533 60.8018 32.89 60.8018 32.37C60.8018 31.8433 60.9185 31.38 61.1518 30.98C61.3851 30.58 61.7018 30.2667 62.1018 30.04C62.5018 29.8133 62.9585 29.7 63.4718 29.7C63.9918 29.7 64.4518 29.8133 64.8518 30.04C65.2585 30.2667 65.5751 30.58 65.8018 30.98C66.0351 31.38 66.1518 31.8433 66.1518 32.37C66.1518 32.89 66.0351 33.3533 65.8018 33.76C65.5751 34.16 65.2585 34.4767 64.8518 34.71C64.4451 34.9367 63.9851 35.05 63.4718 35.05ZM63.4718 34.42C63.8518 34.42 64.1885 34.3367 64.4818 34.17C64.7751 33.9967 65.0051 33.7567 65.1718 33.45C65.3451 33.1367 65.4318 32.7767 65.4318 32.37C65.4318 31.9567 65.3451 31.5967 65.1718 31.29C65.0051 30.9833 64.7751 30.7467 64.4818 30.58C64.1885 30.4067 63.8551 30.32 63.4818 30.32C63.1085 30.32 62.7751 30.4067 62.4818 30.58C62.1885 30.7467 61.9551 30.9833 61.7818 31.29C61.6085 31.5967 61.5218 31.9567 61.5218 32.37C61.5218 32.7767 61.6085 33.1367 61.7818 33.45C61.9551 33.7567 62.1885 33.9967 62.4818 34.17C62.7751 34.3367 63.1051 34.42 63.4718 34.42ZM70.2813 29.7C70.708 29.7 71.0813 29.7833 71.4013 29.95C71.728 30.11 71.9813 30.3567 72.1613 30.69C72.348 31.0233 72.4413 31.4433 72.4413 31.95V35H71.7313V32.02C71.7313 31.4667 71.5913 31.05 71.3113 30.77C71.038 30.4833 70.6513 30.34 70.1513 30.34C69.778 30.34 69.4513 30.4167 69.1713 30.57C68.898 30.7167 68.6847 30.9333 68.5313 31.22C68.3847 31.5 68.3113 31.84 68.3113 32.24V35H67.6013V29.75H68.2813V31.19L68.1713 30.92C68.338 30.54 68.6047 30.2433 68.9713 30.03C69.338 29.81 69.7747 29.7 70.2813 29.7ZM76.0191 35.05C75.5258 35.05 75.1458 34.9167 74.8791 34.65C74.6125 34.3833 74.4791 34.0067 74.4791 33.52V28.59H75.1891V33.48C75.1891 33.7867 75.2658 34.0233 75.4191 34.19C75.5791 34.3567 75.8058 34.44 76.0991 34.44C76.4125 34.44 76.6725 34.35 76.8791 34.17L77.1291 34.68C76.9891 34.8067 76.8191 34.9 76.6191 34.96C76.4258 35.02 76.2258 35.05 76.0191 35.05ZM73.5391 30.34V29.75H76.7891V30.34H73.5391ZM80.4661 35.05C79.9194 35.05 79.4394 34.9367 79.0261 34.71C78.6128 34.4767 78.2894 34.16 78.0561 33.76C77.8228 33.3533 77.7061 32.89 77.7061 32.37C77.7061 31.85 77.8161 31.39 78.0361 30.99C78.2628 30.59 78.5694 30.2767 78.9561 30.05C79.3494 29.8167 79.7894 29.7 80.2761 29.7C80.7694 29.7 81.2061 29.8133 81.5861 30.04C81.9728 30.26 82.2761 30.5733 82.4961 30.98C82.7161 31.38 82.8261 31.8433 82.8261 32.37C82.8261 32.4033 82.8228 32.44 82.8161 32.48C82.8161 32.5133 82.8161 32.55 82.8161 32.59H78.2461V32.06H82.4361L82.1561 32.27C82.1561 31.89 82.0728 31.5533 81.9061 31.26C81.7461 30.96 81.5261 30.7267 81.2461 30.56C80.9661 30.3933 80.6428 30.31 80.2761 30.31C79.9161 30.31 79.5928 30.3933 79.3061 30.56C79.0194 30.7267 78.7961 30.96 78.6361 31.26C78.4761 31.56 78.3961 31.9033 78.3961 32.29V32.4C78.3961 32.8 78.4828 33.1533 78.6561 33.46C78.8361 33.76 79.0828 33.9967 79.3961 34.17C79.7161 34.3367 80.0794 34.42 80.4861 34.42C80.8061 34.42 81.1028 34.3633 81.3761 34.25C81.6561 34.1367 81.8961 33.9633 82.0961 33.73L82.4961 34.19C82.2628 34.47 81.9694 34.6833 81.6161 34.83C81.2694 34.9767 80.8861 35.05 80.4661 35.05ZM86.9513 29.7C87.3779 29.7 87.7513 29.7833 88.0713 29.95C88.3979 30.11 88.6513 30.3567 88.8313 30.69C89.0179 31.0233 89.1113 31.4433 89.1113 31.95V35H88.4013V32.02C88.4013 31.4667 88.2613 31.05 87.9813 30.77C87.7079 30.4833 87.3213 30.34 86.8213 30.34C86.4479 30.34 86.1213 30.4167 85.8413 30.57C85.5679 30.7167 85.3546 30.9333 85.2013 31.22C85.0546 31.5 84.9813 31.84 84.9813 32.24V35H84.2713V29.75H84.9513V31.19L84.8413 30.92C85.0079 30.54 85.2746 30.2433 85.6413 30.03C86.0079 29.81 86.4446 29.7 86.9513 29.7ZM92.6891 35.05C92.1957 35.05 91.8157 34.9167 91.5491 34.65C91.2824 34.3833 91.1491 34.0067 91.1491 33.52V28.59H91.8591V33.48C91.8591 33.7867 91.9357 34.0233 92.0891 34.19C92.2491 34.3567 92.4757 34.44 92.7691 34.44C93.0824 34.44 93.3424 34.35 93.5491 34.17L93.7991 34.68C93.6591 34.8067 93.4891 34.9 93.2891 34.96C93.0957 35.02 92.8957 35.05 92.6891 35.05ZM90.2091 30.34V29.75H93.4591V30.34H90.2091ZM99.9488 36.99C99.4688 36.99 99.0088 36.92 98.5688 36.78C98.1288 36.64 97.7721 36.44 97.4988 36.18L97.8588 35.64C98.1054 35.86 98.4088 36.0333 98.7688 36.16C99.1354 36.2933 99.5221 36.36 99.9288 36.36C100.595 36.36 101.085 36.2033 101.399 35.89C101.712 35.5833 101.869 35.1033 101.869 34.45V33.14L101.969 32.24L101.899 31.34V29.75H102.579V34.36C102.579 35.2667 102.355 35.93 101.909 36.35C101.469 36.7767 100.815 36.99 99.9488 36.99ZM99.8188 34.8C99.3188 34.8 98.8688 34.6933 98.4688 34.48C98.0688 34.26 97.7521 33.9567 97.5188 33.57C97.2921 33.1833 97.1788 32.74 97.1788 32.24C97.1788 31.74 97.2921 31.3 97.5188 30.92C97.7521 30.5333 98.0688 30.2333 98.4688 30.02C98.8688 29.8067 99.3188 29.7 99.8188 29.7C100.285 29.7 100.705 29.7967 101.079 29.99C101.452 30.1833 101.749 30.47 101.969 30.85C102.189 31.23 102.299 31.6933 102.299 32.24C102.299 32.7867 102.189 33.25 101.969 33.63C101.749 34.01 101.452 34.3 101.079 34.5C100.705 34.7 100.285 34.8 99.8188 34.8ZM99.8888 34.17C100.275 34.17 100.619 34.09 100.919 33.93C101.219 33.7633 101.455 33.5367 101.629 33.25C101.802 32.9567 101.889 32.62 101.889 32.24C101.889 31.86 101.802 31.5267 101.629 31.24C101.455 30.9533 101.219 30.73 100.919 30.57C100.619 30.4033 100.275 30.32 99.8888 30.32C99.5088 30.32 99.1654 30.4033 98.8588 30.57C98.5588 30.73 98.3221 30.9533 98.1488 31.24C97.9821 31.5267 97.8988 31.86 97.8988 32.24C97.8988 32.62 97.9821 32.9567 98.1488 33.25C98.3221 33.5367 98.5588 33.7633 98.8588 33.93C99.1654 34.09 99.5088 34.17 99.8888 34.17ZM104.554 35V29.75H105.234V31.18L105.164 30.93C105.311 30.53 105.558 30.2267 105.904 30.02C106.251 29.8067 106.681 29.7 107.194 29.7V30.39C107.168 30.39 107.141 30.39 107.114 30.39C107.088 30.3833 107.061 30.38 107.034 30.38C106.481 30.38 106.048 30.55 105.734 30.89C105.421 31.2233 105.264 31.7 105.264 32.32V35H104.554ZM110.671 35.05C110.125 35.05 109.645 34.9367 109.231 34.71C108.818 34.4767 108.495 34.16 108.261 33.76C108.028 33.3533 107.911 32.89 107.911 32.37C107.911 31.85 108.021 31.39 108.241 30.99C108.468 30.59 108.775 30.2767 109.161 30.05C109.555 29.8167 109.995 29.7 110.481 29.7C110.975 29.7 111.411 29.8133 111.791 30.04C112.178 30.26 112.481 30.5733 112.701 30.98C112.921 31.38 113.031 31.8433 113.031 32.37C113.031 32.4033 113.028 32.44 113.021 32.48C113.021 32.5133 113.021 32.55 113.021 32.59H108.451V32.06H112.641L112.361 32.27C112.361 31.89 112.278 31.5533 112.111 31.26C111.951 30.96 111.731 30.7267 111.451 30.56C111.171 30.3933 110.848 30.31 110.481 30.31C110.121 30.31 109.798 30.3933 109.511 30.56C109.225 30.7267 109.001 30.96 108.841 31.26C108.681 31.56 108.601 31.9033 108.601 32.29V32.4C108.601 32.8 108.688 33.1533 108.861 33.46C109.041 33.76 109.288 33.9967 109.601 34.17C109.921 34.3367 110.285 34.42 110.691 34.42C111.011 34.42 111.308 34.3633 111.581 34.25C111.861 34.1367 112.101 33.9633 112.301 33.73L112.701 34.19C112.468 34.47 112.175 34.6833 111.821 34.83C111.475 34.9767 111.091 35.05 110.671 35.05ZM117.62 35V33.84L117.59 33.65V31.71C117.59 31.2633 117.463 30.92 117.21 30.68C116.963 30.44 116.593 30.32 116.1 30.32C115.76 30.32 115.437 30.3767 115.13 30.49C114.823 30.6033 114.563 30.7533 114.35 30.94L114.03 30.41C114.297 30.1833 114.617 30.01 114.99 29.89C115.363 29.7633 115.757 29.7 116.17 29.7C116.85 29.7 117.373 29.87 117.74 30.21C118.113 30.5433 118.3 31.0533 118.3 31.74V35H117.62ZM115.81 35.05C115.417 35.05 115.073 34.9867 114.78 34.86C114.493 34.7267 114.273 34.5467 114.12 34.32C113.967 34.0867 113.89 33.82 113.89 33.52C113.89 33.2467 113.953 33 114.08 32.78C114.213 32.5533 114.427 32.3733 114.72 32.24C115.02 32.1 115.42 32.03 115.92 32.03H117.73V32.56H115.94C115.433 32.56 115.08 32.65 114.88 32.83C114.687 33.01 114.59 33.2333 114.59 33.5C114.59 33.8 114.707 34.04 114.94 34.22C115.173 34.4 115.5 34.49 115.92 34.49C116.32 34.49 116.663 34.4 116.95 34.22C117.243 34.0333 117.457 33.7667 117.59 33.42L117.75 33.91C117.617 34.2567 117.383 34.5333 117.05 34.74C116.723 34.9467 116.31 35.05 115.81 35.05ZM121.888 35.05C121.395 35.05 121.015 34.9167 120.748 34.65C120.482 34.3833 120.348 34.0067 120.348 33.52V28.59H121.058V33.48C121.058 33.7867 121.135 34.0233 121.288 34.19C121.448 34.3567 121.675 34.44 121.968 34.44C122.282 34.44 122.542 34.35 122.748 34.17L122.998 34.68C122.858 34.8067 122.688 34.9 122.488 34.96C122.295 35.02 122.095 35.05 121.888 35.05ZM119.408 30.34V29.75H122.658V30.34H119.408ZM130.198 35V33.84L130.168 33.65V31.71C130.168 31.2633 130.041 30.92 129.788 30.68C129.541 30.44 129.171 30.32 128.678 30.32C128.338 30.32 128.015 30.3767 127.708 30.49C127.401 30.6033 127.141 30.7533 126.928 30.94L126.608 30.41C126.875 30.1833 127.195 30.01 127.568 29.89C127.941 29.7633 128.335 29.7 128.748 29.7C129.428 29.7 129.951 29.87 130.318 30.21C130.691 30.5433 130.878 31.0533 130.878 31.74V35H130.198ZM128.388 35.05C127.995 35.05 127.651 34.9867 127.358 34.86C127.071 34.7267 126.851 34.5467 126.698 34.32C126.545 34.0867 126.468 33.82 126.468 33.52C126.468 33.2467 126.531 33 126.658 32.78C126.791 32.5533 127.005 32.3733 127.298 32.24C127.598 32.1 127.998 32.03 128.498 32.03H130.308V32.56H128.518C128.011 32.56 127.658 32.65 127.458 32.83C127.265 33.01 127.168 33.2333 127.168 33.5C127.168 33.8 127.285 34.04 127.518 34.22C127.751 34.4 128.078 34.49 128.498 34.49C128.898 34.49 129.241 34.4 129.528 34.22C129.821 34.0333 130.035 33.7667 130.168 33.42L130.328 33.91C130.195 34.2567 129.961 34.5333 129.628 34.74C129.301 34.9467 128.888 35.05 128.388 35.05ZM135.046 36.99C134.566 36.99 134.106 36.92 133.666 36.78C133.226 36.64 132.87 36.44 132.596 36.18L132.956 35.64C133.203 35.86 133.506 36.0333 133.866 36.16C134.233 36.2933 134.62 36.36 135.026 36.36C135.693 36.36 136.183 36.2033 136.496 35.89C136.81 35.5833 136.966 35.1033 136.966 34.45V33.14L137.066 32.24L136.996 31.34V29.75H137.676V34.36C137.676 35.2667 137.453 35.93 137.006 36.35C136.566 36.7767 135.913 36.99 135.046 36.99ZM134.916 34.8C134.416 34.8 133.966 34.6933 133.566 34.48C133.166 34.26 132.85 33.9567 132.616 33.57C132.39 33.1833 132.276 32.74 132.276 32.24C132.276 31.74 132.39 31.3 132.616 30.92C132.85 30.5333 133.166 30.2333 133.566 30.02C133.966 29.8067 134.416 29.7 134.916 29.7C135.383 29.7 135.803 29.7967 136.176 29.99C136.55 30.1833 136.846 30.47 137.066 30.85C137.286 31.23 137.396 31.6933 137.396 32.24C137.396 32.7867 137.286 33.25 137.066 33.63C136.846 34.01 136.55 34.3 136.176 34.5C135.803 34.7 135.383 34.8 134.916 34.8ZM134.986 34.17C135.373 34.17 135.716 34.09 136.016 33.93C136.316 33.7633 136.553 33.5367 136.726 33.25C136.9 32.9567 136.986 32.62 136.986 32.24C136.986 31.86 136.9 31.5267 136.726 31.24C136.553 30.9533 136.316 30.73 136.016 30.57C135.716 30.4033 135.373 30.32 134.986 30.32C134.606 30.32 134.263 30.4033 133.956 30.57C133.656 30.73 133.42 30.9533 133.246 31.24C133.08 31.5267 132.996 31.86 132.996 32.24C132.996 32.62 133.08 32.9567 133.246 33.25C133.42 33.5367 133.656 33.7633 133.956 33.93C134.263 34.09 134.606 34.17 134.986 34.17ZM142.942 35V33.84L142.912 33.65V31.71C142.912 31.2633 142.785 30.92 142.532 30.68C142.285 30.44 141.915 30.32 141.422 30.32C141.082 30.32 140.759 30.3767 140.452 30.49C140.145 30.6033 139.885 30.7533 139.672 30.94L139.352 30.41C139.619 30.1833 139.939 30.01 140.312 29.89C140.685 29.7633 141.079 29.7 141.492 29.7C142.172 29.7 142.695 29.87 143.062 30.21C143.435 30.5433 143.622 31.0533 143.622 31.74V35H142.942ZM141.132 35.05C140.739 35.05 140.395 34.9867 140.102 34.86C139.815 34.7267 139.595 34.5467 139.442 34.32C139.289 34.0867 139.212 33.82 139.212 33.52C139.212 33.2467 139.275 33 139.402 32.78C139.535 32.5533 139.749 32.3733 140.042 32.24C140.342 32.1 140.742 32.03 141.242 32.03H143.052V32.56H141.262C140.755 32.56 140.402 32.65 140.202 32.83C140.009 33.01 139.912 33.2333 139.912 33.5C139.912 33.8 140.029 34.04 140.262 34.22C140.495 34.4 140.822 34.49 141.242 34.49C141.642 34.49 141.985 34.4 142.272 34.22C142.565 34.0333 142.779 33.7667 142.912 33.42L143.072 33.91C142.939 34.2567 142.705 34.5333 142.372 34.74C142.045 34.9467 141.632 35.05 141.132 35.05ZM145.551 35V29.75H146.261V35H145.551ZM145.911 28.59C145.764 28.59 145.641 28.54 145.541 28.44C145.441 28.34 145.391 28.22 145.391 28.08C145.391 27.94 145.441 27.8233 145.541 27.73C145.641 27.63 145.764 27.58 145.911 27.58C146.057 27.58 146.181 27.6267 146.281 27.72C146.381 27.8133 146.431 27.93 146.431 28.07C146.431 28.2167 146.381 28.34 146.281 28.44C146.187 28.54 146.064 28.59 145.911 28.59ZM150.916 29.7C151.343 29.7 151.716 29.7833 152.036 29.95C152.363 30.11 152.616 30.3567 152.796 30.69C152.983 31.0233 153.076 31.4433 153.076 31.95V35H152.366V32.02C152.366 31.4667 152.226 31.05 151.946 30.77C151.673 30.4833 151.286 30.34 150.786 30.34C150.413 30.34 150.086 30.4167 149.806 30.57C149.533 30.7167 149.319 30.9333 149.166 31.22C149.019 31.5 148.946 31.84 148.946 32.24V35H148.236V29.75H148.916V31.19L148.806 30.92C148.973 30.54 149.239 30.2433 149.606 30.03C149.973 29.81 150.409 29.7 150.916 29.7ZM155.024 32.9L154.884 28H155.724L155.574 32.9H155.024ZM155.304 35.05C155.157 35.05 155.031 35 154.924 34.9C154.824 34.7933 154.774 34.67 154.774 34.53C154.774 34.3833 154.824 34.2633 154.924 34.17C155.031 34.07 155.157 34.02 155.304 34.02C155.457 34.02 155.581 34.07 155.674 34.17C155.774 34.2633 155.824 34.3833 155.824 34.53C155.824 34.67 155.774 34.7933 155.674 34.9C155.581 35 155.457 35.05 155.304 35.05Z" fill="#39F2B3"/>
</svg>
