<svg width="1097" height="135" viewBox="0 0 1097 135" fill="none" xmlns="http://www.w3.org/2000/svg">
<path opacity="0.05" d="M71.096 134.576C60.9147 134.576 51.4693 132.981 42.76 129.792C34.1733 126.48 26.6907 121.819 20.312 115.808C14.056 109.797 9.14933 102.744 5.592 94.648C2.03467 86.4293 0.256 77.4133 0.256 67.6C0.256 57.7867 2.03467 48.832 5.592 40.736C9.14933 32.5173 14.056 25.4027 20.312 19.392C26.6907 13.3813 34.1733 8.78133 42.76 5.59199C51.4693 2.27999 60.9147 0.623991 71.096 0.623991C82.9947 0.623991 93.6053 2.70933 102.928 6.88C112.373 11.0507 120.224 17.0613 126.48 24.912L103.296 45.888C99.1253 40.9813 94.5253 37.24 89.496 34.664C84.5893 32.088 79.0693 30.8 72.936 30.8C67.6613 30.8 62.816 31.6587 58.4 33.376C53.984 35.0933 50.1813 37.608 46.992 40.92C43.9253 44.1093 41.472 47.9733 39.632 52.512C37.9147 57.0507 37.056 62.08 37.056 67.6C37.056 73.12 37.9147 78.1493 39.632 82.688C41.472 87.2267 43.9253 91.152 46.992 94.464C50.1813 97.6533 53.984 100.107 58.4 101.824C62.816 103.541 67.6613 104.4 72.936 104.4C79.0693 104.4 84.5893 103.112 89.496 100.536C94.5253 97.96 99.1253 94.2187 103.296 89.312L126.48 110.288C120.224 118.016 112.373 124.027 102.928 128.32C93.6053 132.491 82.9947 134.576 71.096 134.576ZM143.613 132V3.19999H173.605L226.965 90.784H211.141L263.029 3.19999H293.021L293.389 132H259.901L259.533 54.168H265.237L226.413 119.304H210.221L170.293 54.168H177.285V132H143.613ZM320.057 132V3.19999H380.961C395.19 3.19999 407.702 5.83733 418.497 11.112C429.292 16.3867 437.694 23.808 443.705 33.376C449.838 42.944 452.905 54.352 452.905 67.6C452.905 80.7253 449.838 92.1333 443.705 101.824C437.694 111.392 429.292 118.813 418.497 124.088C407.702 129.363 395.19 132 380.961 132H320.057ZM356.489 102.928H379.489C386.849 102.928 393.228 101.579 398.625 98.88C404.145 96.0587 408.438 92.0107 411.505 86.736C414.572 81.3387 416.105 74.96 416.105 67.6C416.105 60.1173 414.572 53.7387 411.505 48.464C408.438 43.1893 404.145 39.2027 398.625 36.504C393.228 33.6827 386.849 32.272 379.489 32.272H356.489V102.928ZM472.962 132V3.19999H509.394V132H472.962ZM600.603 134.576C590.421 134.576 580.976 132.981 572.267 129.792C563.557 126.48 556.013 121.819 549.635 115.808C543.379 109.797 538.472 102.744 534.915 94.648C531.357 86.4293 529.579 77.4133 529.579 67.6C529.579 57.7867 531.357 48.832 534.915 40.736C538.472 32.5173 543.44 25.4027 549.819 19.392C556.197 13.3813 563.741 8.78133 572.451 5.59199C581.283 2.27999 590.912 0.623991 601.339 0.623991C613.483 0.623991 624.339 2.64799 633.907 6.69599C643.475 10.744 651.387 16.5707 657.643 24.176L634.459 45.152C630.043 40.368 625.259 36.8107 620.107 34.48C615.077 32.0267 609.435 30.8 603.179 30.8C597.659 30.8 592.629 31.6587 588.091 33.376C583.552 35.0933 579.688 37.608 576.499 40.92C573.309 44.1093 570.795 47.9733 568.955 52.512C567.237 56.928 566.379 61.9573 566.379 67.6C566.379 72.9973 567.237 77.9653 568.955 82.504C570.795 87.0427 573.309 90.968 576.499 94.28C579.688 97.4693 583.491 99.984 587.907 101.824C592.445 103.541 597.413 104.4 602.811 104.4C608.208 104.4 613.483 103.541 618.635 101.824C623.787 99.984 629 96.9173 634.275 92.624L654.699 118.2C647.339 123.475 638.813 127.523 629.123 130.344C619.432 133.165 609.925 134.576 600.603 134.576ZM622.499 113.416V64.84H654.699V118.2L622.499 113.416ZM678.686 132V3.19999H715.118V132H678.686ZM769.342 132V32.088H729.782V3.19999H845.15V32.088H805.774V132H769.342ZM837.688 132L894.544 3.19999H930.424L987.464 132H949.56L905.032 21.048H919.384L874.856 132H837.688ZM868.784 106.976L878.168 80.112H941.096L950.48 106.976H868.784ZM998.682 132V3.19999H1035.11V103.112H1096.57V132H998.682Z" fill="white"/>
</svg>
