<svg width="54" height="54" viewBox="0 0 54 54" fill="none" xmlns="http://www.w3.org/2000/svg">
<circle cx="27" cy="27" r="26.5" stroke="white"/>
<path d="M19 27L18.6464 27.3536L18.2929 27L18.6464 26.6464L19 27ZM34 26.5C34.2761 26.5 34.5 26.7239 34.5 27C34.5 27.2761 34.2761 27.5 34 27.5L34 26.5ZM24.6464 33.3536L18.6464 27.3536L19.3536 26.6464L25.3536 32.6464L24.6464 33.3536ZM18.6464 26.6464L24.6464 20.6464L25.3536 21.3536L19.3536 27.3536L18.6464 26.6464ZM19 26.5L34 26.5L34 27.5L19 27.5L19 26.5Z" fill="white"/>
</svg>
